<svg width="80" height="82" viewBox="0 0 80 82" fill="none" xmlns="http://www.w3.org/2000/svg">
<circle cx="40" cy="35" r="35" fill="#EEB9EF"/>
<path d="M67.264 34.48C68.16 34.48 68.8 34.16 68.928 33.456C66.624 31.28 62.912 28.464 62.912 28.464L59.52 32.56H42.048V18.8C43.648 18.544 44.096 17.904 44.288 17.008L37.76 16.24V32.56H11.264L11.84 34.48H34.56C29.76 46.384 20.736 58.672 9.728 66.8L10.56 67.632C22.464 60.656 31.872 50.352 37.76 38.896V74.928H38.592C40.192 74.928 42.048 73.84 42.048 73.2V34.928C47.168 48.944 56 60.272 65.856 66.608C66.624 64.496 68.288 63.152 70.016 63.024L70.208 62.32C59.904 57.456 49.152 46.704 43.328 34.48H67.264Z" fill="black"/>
</svg>
