<svg width="230" height="90" viewBox="0 0 230 90" fill="none" xmlns="http://www.w3.org/2000/svg">
<path d="M52.358 81.5455C52.3153 81.1856 52.1425 80.9062 51.8395 80.7074C51.5365 80.5085 51.1648 80.4091 50.7244 80.4091C50.4025 80.4091 50.1207 80.4612 49.8793 80.5653C49.6402 80.6695 49.4531 80.8127 49.3182 80.995C49.1856 81.1773 49.1193 81.3845 49.1193 81.6165C49.1193 81.8106 49.1655 81.9775 49.2578 82.1172C49.3525 82.2545 49.4732 82.3693 49.62 82.4616C49.7668 82.5516 49.9207 82.6262 50.0817 82.6854C50.2427 82.7422 50.3906 82.7884 50.5256 82.8239L51.2642 83.0227C51.4536 83.0724 51.6643 83.1411 51.8963 83.2287C52.1307 83.3163 52.3544 83.4358 52.5675 83.5874C52.7829 83.7365 52.9605 83.9283 53.1001 84.1626C53.2398 84.397 53.3097 84.6847 53.3097 85.0256C53.3097 85.4186 53.2067 85.7737 53.0007 86.0909C52.7971 86.4081 52.4988 86.6603 52.1058 86.8473C51.7152 87.0343 51.2405 87.1278 50.6818 87.1278C50.161 87.1278 49.71 87.0438 49.3288 86.8757C48.95 86.7076 48.6518 86.4732 48.4339 86.1726C48.2185 85.8719 48.0966 85.5227 48.0682 85.125H48.9773C49.0009 85.3996 49.0933 85.6269 49.2543 85.8068C49.4176 85.9844 49.6236 86.117 49.8722 86.2045C50.1231 86.2898 50.393 86.3324 50.6818 86.3324C51.018 86.3324 51.3198 86.2779 51.5874 86.169C51.8549 86.0578 52.0668 85.9039 52.223 85.7074C52.3793 85.5085 52.4574 85.2765 52.4574 85.0114C52.4574 84.7699 52.3899 84.5734 52.255 84.4219C52.12 84.2704 51.9425 84.1473 51.7223 84.0526C51.5021 83.9579 51.2642 83.875 51.0085 83.804L50.1136 83.5483C49.5455 83.3849 49.0956 83.1518 48.7642 82.8487C48.4328 82.5457 48.267 82.1491 48.267 81.6591C48.267 81.2519 48.3771 80.8968 48.5973 80.5938C48.8198 80.2884 49.1181 80.0516 49.4922 79.8835C49.8686 79.7131 50.2888 79.6278 50.7528 79.6278C51.2216 79.6278 51.6383 79.7119 52.0028 79.88C52.3674 80.0457 52.6563 80.273 52.8693 80.5618C53.0848 80.8506 53.1984 81.1785 53.2102 81.5455H52.358ZM58.0815 84.7699V81.5455H58.9196V87H58.0815V86.0767H58.0247C57.8968 86.3537 57.698 86.5893 57.4281 86.7834C57.1582 86.9751 56.8173 87.071 56.4054 87.071C56.0645 87.071 55.7614 86.9964 55.4963 86.8473C55.2311 86.6958 55.0228 86.4685 54.8713 86.1655C54.7198 85.8601 54.644 85.4754 54.644 85.0114V81.5455H55.4821V84.9545C55.4821 85.3523 55.5933 85.6695 55.8159 85.9062C56.0408 86.143 56.3272 86.2614 56.6752 86.2614C56.8836 86.2614 57.0955 86.2081 57.3109 86.1016C57.5287 85.995 57.711 85.8317 57.8578 85.6115C58.0069 85.3913 58.0815 85.1108 58.0815 84.7699ZM62.0597 87.1278C61.714 87.1278 61.4003 87.0627 61.1186 86.9325C60.8369 86.8 60.6132 86.6094 60.4474 86.3608C60.2817 86.1098 60.1989 85.8068 60.1989 85.4517C60.1989 85.1392 60.2604 84.8859 60.3835 84.6918C60.5066 84.4953 60.6712 84.3414 60.8771 84.2301C61.0831 84.1188 61.3104 84.036 61.5589 83.9815C61.8099 83.9247 62.062 83.8797 62.3153 83.8466C62.6468 83.804 62.9155 83.772 63.1214 83.7507C63.3298 83.727 63.4813 83.688 63.576 83.6335C63.6731 83.5791 63.7216 83.4844 63.7216 83.3494V83.321C63.7216 82.9706 63.6257 82.6984 63.4339 82.5043C63.2446 82.3101 62.9569 82.2131 62.571 82.2131C62.1709 82.2131 61.8572 82.3007 61.63 82.4759C61.4027 82.651 61.2429 82.8381 61.1506 83.0369L60.3551 82.7528C60.4972 82.4214 60.6866 82.1634 60.9233 81.9787C61.1624 81.7917 61.4228 81.6615 61.7045 81.5881C61.9886 81.5123 62.268 81.4744 62.5426 81.4744C62.7178 81.4744 62.919 81.4957 63.1463 81.5384C63.3759 81.5786 63.5973 81.6626 63.8104 81.7905C64.0258 81.9183 64.2045 82.1113 64.3466 82.3693C64.4886 82.6274 64.5597 82.973 64.5597 83.4062V87H63.7216V86.2614H63.679C63.6222 86.3797 63.5275 86.5064 63.3949 86.6413C63.2623 86.7763 63.0859 86.8911 62.8658 86.9858C62.6456 87.0805 62.3769 87.1278 62.0597 87.1278ZM62.1875 86.375C62.5189 86.375 62.7983 86.3099 63.0256 86.1797C63.2552 86.0495 63.428 85.8814 63.544 85.6754C63.6624 85.4695 63.7216 85.2528 63.7216 85.0256V84.2585C63.6861 84.3011 63.608 84.3402 63.4872 84.3757C63.3688 84.4089 63.2315 84.4384 63.0753 84.4645C62.9214 84.4882 62.7711 84.5095 62.6243 84.5284C62.4799 84.545 62.3627 84.5592 62.2727 84.571C62.0549 84.5994 61.8513 84.6456 61.6619 84.7095C61.4749 84.7711 61.3234 84.8646 61.2074 84.9901C61.0938 85.1132 61.0369 85.2812 61.0369 85.4943C61.0369 85.7855 61.1446 86.0057 61.3601 86.1548C61.5779 86.3016 61.8537 86.375 62.1875 86.375ZM71.3308 81.5455V82.2557H68.3904V81.5455H71.3308ZM69.2711 87V80.7926C69.2711 80.4801 69.3445 80.2197 69.4913 80.0114C69.6381 79.803 69.8287 79.6468 70.063 79.5426C70.2974 79.4384 70.5448 79.3864 70.8052 79.3864C71.0112 79.3864 71.1793 79.4029 71.3095 79.4361C71.4397 79.4692 71.5368 79.5 71.6007 79.5284L71.3592 80.2528C71.3166 80.2386 71.2574 80.2209 71.1816 80.1996C71.1083 80.1783 71.0112 80.1676 70.8904 80.1676C70.6135 80.1676 70.4134 80.2375 70.2903 80.3771C70.1696 80.5168 70.1092 80.7216 70.1092 80.9915V87H69.2711ZM74.5676 87.1136C74.0421 87.1136 73.5887 86.9976 73.2076 86.7656C72.8288 86.5312 72.5364 86.2045 72.3304 85.7855C72.1268 85.3641 72.025 84.8741 72.025 84.3153C72.025 83.7566 72.1268 83.2642 72.3304 82.8381C72.5364 82.4096 72.8229 82.0758 73.1898 81.8366C73.5591 81.5952 73.99 81.4744 74.4824 81.4744C74.7665 81.4744 75.0471 81.5218 75.324 81.6165C75.601 81.7112 75.8532 81.8651 76.0804 82.0781C76.3077 82.2888 76.4888 82.5682 76.6238 82.9162C76.7587 83.2642 76.8262 83.6927 76.8262 84.2017V84.5568H72.6216V83.8324H75.9739C75.9739 83.5246 75.9123 83.25 75.7892 83.0085C75.6685 82.767 75.4957 82.5765 75.2708 82.4368C75.0482 82.2971 74.7855 82.2273 74.4824 82.2273C74.1486 82.2273 73.8598 82.3101 73.6159 82.4759C73.3745 82.6392 73.1886 82.8523 73.0584 83.1151C72.9282 83.3778 72.8631 83.6596 72.8631 83.9602V84.4432C72.8631 84.8551 72.9341 85.2043 73.0762 85.4908C73.2206 85.7749 73.4206 85.9915 73.6763 86.1406C73.932 86.2874 74.2291 86.3608 74.5676 86.3608C74.7878 86.3608 74.9867 86.33 75.1642 86.2685C75.3442 86.2045 75.4992 86.1098 75.6294 85.9844C75.7596 85.8565 75.8603 85.6979 75.9313 85.5085L76.7409 85.7358C76.6557 86.0104 76.5125 86.2519 76.3113 86.4602C76.11 86.6662 75.8614 86.8272 75.5655 86.9432C75.2696 87.0568 74.937 87.1136 74.5676 87.1136ZM78.9391 79.7273V87H78.101V79.7273H78.9391ZM80.4741 87V81.5455H81.3121V87H80.4741ZM80.9002 80.6364C80.7369 80.6364 80.596 80.5807 80.4776 80.4695C80.3616 80.3582 80.3036 80.2244 80.3036 80.0682C80.3036 79.9119 80.3616 79.7782 80.4776 79.6669C80.596 79.5556 80.7369 79.5 80.9002 79.5C81.0636 79.5 81.2032 79.5556 81.3192 79.6669C81.4376 79.7782 81.4968 79.9119 81.4968 80.0682C81.4968 80.2244 81.4376 80.3582 81.3192 80.4695C81.2032 80.5807 81.0636 80.6364 80.9002 80.6364ZM85.063 87.1136C84.5517 87.1136 84.1113 86.9929 83.742 86.7514C83.3727 86.5099 83.0886 86.1773 82.8897 85.7536C82.6909 85.3298 82.5914 84.8456 82.5914 84.3011C82.5914 83.7472 82.6932 83.2583 82.8968 82.8345C83.1028 82.4084 83.3893 82.0758 83.7562 81.8366C84.1255 81.5952 84.5564 81.4744 85.0488 81.4744C85.4324 81.4744 85.778 81.5455 86.0858 81.6875C86.3935 81.8295 86.6457 82.0284 86.8422 82.2841C87.0386 82.5398 87.1606 82.8381 87.2079 83.179H86.3699C86.3059 82.9304 86.1639 82.7102 85.9437 82.5185C85.7259 82.3243 85.4324 82.2273 85.063 82.2273C84.7363 82.2273 84.4499 82.3125 84.2037 82.483C83.9598 82.651 83.7692 82.889 83.6319 83.1967C83.497 83.5021 83.4295 83.8608 83.4295 84.2727C83.4295 84.6941 83.4958 85.0611 83.6284 85.3736C83.7633 85.6861 83.9527 85.9287 84.1966 86.1016C84.4428 86.2744 84.7316 86.3608 85.063 86.3608C85.2808 86.3608 85.4785 86.3229 85.6561 86.2472C85.8336 86.1714 85.984 86.0625 86.1071 85.9205C86.2302 85.7784 86.3178 85.608 86.3699 85.4091H87.2079C87.1606 85.7311 87.0434 86.0211 86.8564 86.2791C86.6717 86.5348 86.4267 86.7384 86.1213 86.8899C85.8182 87.0391 85.4655 87.1136 85.063 87.1136ZM88.4331 87V81.5455H89.2711V87H88.4331ZM88.8592 80.6364C88.6958 80.6364 88.555 80.5807 88.4366 80.4695C88.3206 80.3582 88.2626 80.2244 88.2626 80.0682C88.2626 79.9119 88.3206 79.7782 88.4366 79.6669C88.555 79.5556 88.6958 79.5 88.8592 79.5C89.0225 79.5 89.1622 79.5556 89.2782 79.6669C89.3966 79.7782 89.4558 79.9119 89.4558 80.0682C89.4558 80.2244 89.3966 80.3582 89.2782 80.4695C89.1622 80.5807 89.0225 80.6364 88.8592 80.6364ZM92.8658 87.1136C92.4112 87.1136 92.0099 86.9988 91.6619 86.7692C91.3139 86.5372 91.0417 86.2105 90.8452 85.7891C90.6487 85.3653 90.5504 84.8646 90.5504 84.2869C90.5504 83.714 90.6487 83.2169 90.8452 82.7955C91.0417 82.3741 91.3151 82.0485 91.6655 81.8189C92.0159 81.5893 92.4207 81.4744 92.88 81.4744C93.2351 81.4744 93.5156 81.5336 93.7216 81.652C93.9299 81.768 94.0885 81.9006 94.1974 82.0497C94.3087 82.1965 94.3951 82.3172 94.4567 82.4119H94.5277V79.7273H95.3658V87H94.5561V86.1619H94.4567C94.3951 86.2614 94.3075 86.3868 94.1939 86.5384C94.0803 86.6875 93.9181 86.8213 93.7074 86.9396C93.4967 87.0556 93.2161 87.1136 92.8658 87.1136ZM92.9794 86.3608C93.3156 86.3608 93.5997 86.2732 93.8317 86.098C94.0637 85.9205 94.2401 85.6754 94.3608 85.3629C94.4815 85.0481 94.5419 84.6847 94.5419 84.2727C94.5419 83.8655 94.4827 83.5092 94.3643 83.2038C94.246 82.8961 94.0708 82.657 93.8388 82.4865C93.6068 82.3137 93.3203 82.2273 92.9794 82.2273C92.6243 82.2273 92.3284 82.3184 92.0916 82.5007C91.8572 82.6806 91.6809 82.9257 91.5625 83.2358C91.4465 83.5436 91.3885 83.8892 91.3885 84.2727C91.3885 84.661 91.4477 85.0137 91.5661 85.331C91.6868 85.6458 91.8643 85.8968 92.0987 86.0838C92.3355 86.2685 92.629 86.3608 92.9794 86.3608ZM98.6222 87.1278C98.2765 87.1278 97.9628 87.0627 97.6811 86.9325C97.3994 86.8 97.1757 86.6094 97.0099 86.3608C96.8442 86.1098 96.7614 85.8068 96.7614 85.4517C96.7614 85.1392 96.8229 84.8859 96.946 84.6918C97.0691 84.4953 97.2337 84.3414 97.4396 84.2301C97.6456 84.1188 97.8729 84.036 98.1214 83.9815C98.3724 83.9247 98.6245 83.8797 98.8778 83.8466C99.2093 83.804 99.478 83.772 99.6839 83.7507C99.8923 83.727 100.044 83.688 100.138 83.6335C100.236 83.5791 100.284 83.4844 100.284 83.3494V83.321C100.284 82.9706 100.188 82.6984 99.9964 82.5043C99.8071 82.3101 99.5194 82.2131 99.1335 82.2131C98.7334 82.2131 98.4197 82.3007 98.1925 82.4759C97.9652 82.651 97.8054 82.8381 97.7131 83.0369L96.9176 82.7528C97.0597 82.4214 97.2491 82.1634 97.4858 81.9787C97.7249 81.7917 97.9853 81.6615 98.267 81.5881C98.5511 81.5123 98.8305 81.4744 99.1051 81.4744C99.2803 81.4744 99.4815 81.4957 99.7088 81.5384C99.9384 81.5786 100.16 81.6626 100.373 81.7905C100.588 81.9183 100.767 82.1113 100.909 82.3693C101.051 82.6274 101.122 82.973 101.122 83.4062V87H100.284V86.2614H100.241C100.185 86.3797 100.09 86.5064 99.9574 86.6413C99.8248 86.7763 99.6484 86.8911 99.4283 86.9858C99.2081 87.0805 98.9394 87.1278 98.6222 87.1278ZM98.75 86.375C99.0814 86.375 99.3608 86.3099 99.5881 86.1797C99.8177 86.0495 99.9905 85.8814 100.107 85.6754C100.225 85.4695 100.284 85.2528 100.284 85.0256V84.2585C100.249 84.3011 100.17 84.3402 100.05 84.3757C99.9313 84.4089 99.794 84.4384 99.6378 84.4645C99.4839 84.4882 99.3336 84.5095 99.1868 84.5284C99.0424 84.545 98.9252 84.5592 98.8352 84.571C98.6174 84.5994 98.4138 84.6456 98.2244 84.7095C98.0374 84.7711 97.8859 84.8646 97.7699 84.9901C97.6563 85.1132 97.5994 85.2812 97.5994 85.4943C97.5994 85.7855 97.7071 86.0057 97.9226 86.1548C98.1404 86.3016 98.4162 86.375 98.75 86.375ZM104.711 87.1136C104.257 87.1136 103.856 86.9988 103.508 86.7692C103.16 86.5372 102.887 86.2105 102.691 85.7891C102.494 85.3653 102.396 84.8646 102.396 84.2869C102.396 83.714 102.494 83.2169 102.691 82.7955C102.887 82.3741 103.161 82.0485 103.511 81.8189C103.862 81.5893 104.266 81.4744 104.726 81.4744C105.081 81.4744 105.361 81.5336 105.567 81.652C105.776 81.768 105.934 81.9006 106.043 82.0497C106.154 82.1965 106.241 82.3172 106.302 82.4119H106.373V79.7273H107.211V87H106.402V86.1619H106.302C106.241 86.2614 106.153 86.3868 106.04 86.5384C105.926 86.6875 105.764 86.8213 105.553 86.9396C105.342 87.0556 105.062 87.1136 104.711 87.1136ZM104.825 86.3608C105.161 86.3608 105.445 86.2732 105.677 86.098C105.909 85.9205 106.086 85.6754 106.206 85.3629C106.327 85.0481 106.388 84.6847 106.388 84.2727C106.388 83.8655 106.328 83.5092 106.21 83.2038C106.092 82.8961 105.916 82.657 105.684 82.4865C105.452 82.3137 105.166 82.2273 104.825 82.2273C104.47 82.2273 104.174 82.3184 103.937 82.5007C103.703 82.6806 103.527 82.9257 103.408 83.2358C103.292 83.5436 103.234 83.8892 103.234 84.2727C103.234 84.661 103.293 85.0137 103.412 85.331C103.532 85.6458 103.71 85.8968 103.944 86.0838C104.181 86.2685 104.475 86.3608 104.825 86.3608ZM111.15 87.1136C110.624 87.1136 110.171 86.9976 109.79 86.7656C109.411 86.5312 109.118 86.2045 108.912 85.7855C108.709 85.3641 108.607 84.8741 108.607 84.3153C108.607 83.7566 108.709 83.2642 108.912 82.8381C109.118 82.4096 109.405 82.0758 109.772 81.8366C110.141 81.5952 110.572 81.4744 111.064 81.4744C111.349 81.4744 111.629 81.5218 111.906 81.6165C112.183 81.7112 112.435 81.8651 112.662 82.0781C112.89 82.2888 113.071 82.5682 113.206 82.9162C113.341 83.2642 113.408 83.6927 113.408 84.2017V84.5568H109.204V83.8324H112.556C112.556 83.5246 112.494 83.25 112.371 83.0085C112.251 82.767 112.078 82.5765 111.853 82.4368C111.63 82.2971 111.367 82.2273 111.064 82.2273C110.731 82.2273 110.442 82.3101 110.198 82.4759C109.956 82.6392 109.771 82.8523 109.64 83.1151C109.51 83.3778 109.445 83.6596 109.445 83.9602V84.4432C109.445 84.8551 109.516 85.2043 109.658 85.4908C109.803 85.7749 110.003 85.9915 110.258 86.1406C110.514 86.2874 110.811 86.3608 111.15 86.3608C111.37 86.3608 111.569 86.33 111.746 86.2685C111.926 86.2045 112.081 86.1098 112.211 85.9844C112.342 85.8565 112.442 85.6979 112.513 85.5085L113.323 85.7358C113.238 86.0104 113.095 86.2519 112.893 86.4602C112.692 86.6662 112.443 86.8272 112.148 86.9432C111.852 87.0568 111.519 87.1136 111.15 87.1136ZM115.933 86.0057L115.876 86.3892C115.836 86.6591 115.774 86.9479 115.692 87.2557C115.611 87.5634 115.527 87.8535 115.439 88.1257C115.352 88.398 115.28 88.6146 115.223 88.7756H114.584C114.614 88.6241 114.655 88.424 114.704 88.1754C114.754 87.9268 114.804 87.6487 114.854 87.3409C114.906 87.0355 114.948 86.723 114.981 86.4034L115.024 86.0057H115.933ZM121.136 83.7188V87H120.298V81.5455H121.108V82.3977H121.179C121.307 82.1207 121.501 81.8982 121.761 81.7301C122.022 81.5597 122.358 81.4744 122.77 81.4744C123.139 81.4744 123.462 81.5502 123.739 81.7017C124.016 81.8509 124.232 82.0781 124.386 82.3835C124.54 82.6866 124.616 83.0701 124.616 83.5341V87H123.778V83.5909C123.778 83.1624 123.667 82.8286 123.445 82.5895C123.222 82.348 122.917 82.2273 122.528 82.2273C122.261 82.2273 122.022 82.2853 121.811 82.4013C121.603 82.5173 121.438 82.6866 121.317 82.9091C121.197 83.1316 121.136 83.4015 121.136 83.7188ZM128.364 87.1136C127.871 87.1136 127.439 86.9964 127.068 86.7621C126.698 86.5277 126.41 86.1998 126.201 85.7784C125.995 85.357 125.892 84.8646 125.892 84.3011C125.892 83.733 125.995 83.237 126.201 82.8132C126.41 82.3894 126.698 82.0604 127.068 81.826C127.439 81.5916 127.871 81.4744 128.364 81.4744C128.856 81.4744 129.287 81.5916 129.656 81.826C130.028 82.0604 130.317 82.3894 130.523 82.8132C130.731 83.237 130.835 83.733 130.835 84.3011C130.835 84.8646 130.731 85.357 130.523 85.7784C130.317 86.1998 130.028 86.5277 129.656 86.7621C129.287 86.9964 128.856 87.1136 128.364 87.1136ZM128.364 86.3608C128.738 86.3608 129.046 86.2649 129.287 86.0732C129.529 85.8814 129.707 85.6293 129.823 85.3168C129.939 85.0043 129.997 84.6657 129.997 84.3011C129.997 83.9366 129.939 83.5968 129.823 83.282C129.707 82.9671 129.529 82.7126 129.287 82.5185C129.046 82.3243 128.738 82.2273 128.364 82.2273C127.99 82.2273 127.682 82.3243 127.441 82.5185C127.199 82.7126 127.02 82.9671 126.904 83.282C126.788 83.5968 126.73 83.9366 126.73 84.3011C126.73 84.6657 126.788 85.0043 126.904 85.3168C127.02 85.6293 127.199 85.8814 127.441 86.0732C127.682 86.2649 127.99 86.3608 128.364 86.3608ZM135.978 82.767L135.225 82.9801C135.178 82.8546 135.108 82.7327 135.016 82.6143C134.926 82.4936 134.803 82.3942 134.647 82.3161C134.49 82.2379 134.29 82.1989 134.047 82.1989C133.713 82.1989 133.435 82.2758 133.212 82.4297C132.992 82.5812 132.882 82.7741 132.882 83.0085C132.882 83.2169 132.958 83.3814 133.109 83.5021C133.261 83.6229 133.497 83.7235 133.819 83.804L134.629 84.0028C135.117 84.1212 135.48 84.3023 135.719 84.5462C135.958 84.7876 136.078 85.099 136.078 85.4801C136.078 85.7926 135.988 86.072 135.808 86.3182C135.63 86.5644 135.382 86.7585 135.062 86.9006C134.743 87.0426 134.371 87.1136 133.947 87.1136C133.391 87.1136 132.93 86.9929 132.566 86.7514C132.201 86.5099 131.97 86.1572 131.873 85.6932L132.669 85.4943C132.744 85.7879 132.888 86.008 133.098 86.1548C133.311 86.3016 133.59 86.375 133.933 86.375C134.324 86.375 134.634 86.2921 134.863 86.1264C135.095 85.9583 135.211 85.7571 135.211 85.5227C135.211 85.3333 135.145 85.1747 135.012 85.0469C134.88 84.9167 134.676 84.8196 134.402 84.7557L133.493 84.5426C132.993 84.4242 132.626 84.2408 132.392 83.9922C132.16 83.7412 132.044 83.4276 132.044 83.0511C132.044 82.7434 132.13 82.4711 132.303 82.2344C132.478 81.9976 132.716 81.8118 133.017 81.6768C133.32 81.5419 133.663 81.4744 134.047 81.4744C134.586 81.4744 135.01 81.5928 135.318 81.8295C135.628 82.0663 135.848 82.3788 135.978 82.767ZM141.203 82.767L140.45 82.9801C140.403 82.8546 140.333 82.7327 140.241 82.6143C140.151 82.4936 140.028 82.3942 139.871 82.3161C139.715 82.2379 139.515 82.1989 139.271 82.1989C138.937 82.1989 138.659 82.2758 138.437 82.4297C138.216 82.5812 138.106 82.7741 138.106 83.0085C138.106 83.2169 138.182 83.3814 138.334 83.5021C138.485 83.6229 138.722 83.7235 139.044 83.804L139.854 84.0028C140.341 84.1212 140.705 84.3023 140.944 84.5462C141.183 84.7876 141.302 85.099 141.302 85.4801C141.302 85.7926 141.212 86.072 141.032 86.3182C140.855 86.5644 140.606 86.7585 140.287 86.9006C139.967 87.0426 139.595 87.1136 139.172 87.1136C138.615 87.1136 138.155 86.9929 137.79 86.7514C137.426 86.5099 137.195 86.1572 137.098 85.6932L137.893 85.4943C137.969 85.7879 138.112 86.008 138.323 86.1548C138.536 86.3016 138.814 86.375 139.157 86.375C139.548 86.375 139.858 86.2921 140.088 86.1264C140.32 85.9583 140.436 85.7571 140.436 85.5227C140.436 85.3333 140.37 85.1747 140.237 85.0469C140.104 84.9167 139.901 84.8196 139.626 84.7557L138.717 84.5426C138.218 84.4242 137.851 84.2408 137.616 83.9922C137.384 83.7412 137.268 83.4276 137.268 83.0511C137.268 82.7434 137.355 82.4711 137.528 82.2344C137.703 81.9976 137.941 81.8118 138.241 81.6768C138.544 81.5419 138.888 81.4744 139.271 81.4744C139.811 81.4744 140.235 81.5928 140.542 81.8295C140.853 82.0663 141.073 82.3788 141.203 82.767ZM144.78 87.1136C144.287 87.1136 143.855 86.9964 143.484 86.7621C143.114 86.5277 142.826 86.1998 142.617 85.7784C142.411 85.357 142.308 84.8646 142.308 84.3011C142.308 83.733 142.411 83.237 142.617 82.8132C142.826 82.3894 143.114 82.0604 143.484 81.826C143.855 81.5916 144.287 81.4744 144.78 81.4744C145.272 81.4744 145.703 81.5916 146.072 81.826C146.444 82.0604 146.733 82.3894 146.939 82.8132C147.147 83.237 147.251 83.733 147.251 84.3011C147.251 84.8646 147.147 85.357 146.939 85.7784C146.733 86.1998 146.444 86.5277 146.072 86.7621C145.703 86.9964 145.272 87.1136 144.78 87.1136ZM144.78 86.3608C145.154 86.3608 145.462 86.2649 145.703 86.0732C145.945 85.8814 146.123 85.6293 146.239 85.3168C146.355 85.0043 146.413 84.6657 146.413 84.3011C146.413 83.9366 146.355 83.5968 146.239 83.282C146.123 82.9671 145.945 82.7126 145.703 82.5185C145.462 82.3243 145.154 82.2273 144.78 82.2273C144.406 82.2273 144.098 82.3243 143.857 82.5185C143.615 82.7126 143.436 82.9671 143.32 83.282C143.204 83.5968 143.146 83.9366 143.146 84.3011C143.146 84.6657 143.204 85.0043 143.32 85.3168C143.436 85.6293 143.615 85.8814 143.857 86.0732C144.098 86.2649 144.406 86.3608 144.78 86.3608ZM153.403 87.1136C152.948 87.1136 152.547 86.9988 152.199 86.7692C151.851 86.5372 151.579 86.2105 151.382 85.7891C151.186 85.3653 151.088 84.8646 151.088 84.2869C151.088 83.714 151.186 83.2169 151.382 82.7955C151.579 82.3741 151.852 82.0485 152.203 81.8189C152.553 81.5893 152.958 81.4744 153.417 81.4744C153.772 81.4744 154.053 81.5336 154.259 81.652C154.467 81.768 154.626 81.9006 154.735 82.0497C154.846 82.1965 154.932 82.3172 154.994 82.4119H155.065V79.7273H155.903V87H155.093V86.1619H154.994C154.932 86.2614 154.845 86.3868 154.731 86.5384C154.617 86.6875 154.455 86.8213 154.244 86.9396C154.034 87.0556 153.753 87.1136 153.403 87.1136ZM153.517 86.3608C153.853 86.3608 154.137 86.2732 154.369 86.098C154.601 85.9205 154.777 85.6754 154.898 85.3629C155.019 85.0481 155.079 84.6847 155.079 84.2727C155.079 83.8655 155.02 83.5092 154.901 83.2038C154.783 82.8961 154.608 82.657 154.376 82.4865C154.144 82.3137 153.857 82.2273 153.517 82.2273C153.161 82.2273 152.865 82.3184 152.629 82.5007C152.394 82.6806 152.218 82.9257 152.1 83.2358C151.984 83.5436 151.926 83.8892 151.926 84.2727C151.926 84.661 151.985 85.0137 152.103 85.331C152.224 85.6458 152.401 85.8968 152.636 86.0838C152.873 86.2685 153.166 86.3608 153.517 86.3608ZM159.841 87.1136C159.316 87.1136 158.862 86.9976 158.481 86.7656C158.102 86.5312 157.81 86.2045 157.604 85.7855C157.4 85.3641 157.298 84.8741 157.298 84.3153C157.298 83.7566 157.4 83.2642 157.604 82.8381C157.81 82.4096 158.096 82.0758 158.463 81.8366C158.833 81.5952 159.263 81.4744 159.756 81.4744C160.04 81.4744 160.32 81.5218 160.597 81.6165C160.874 81.7112 161.127 81.8651 161.354 82.0781C161.581 82.2888 161.762 82.5682 161.897 82.9162C162.032 83.2642 162.1 83.6927 162.1 84.2017V84.5568H157.895V83.8324H161.247C161.247 83.5246 161.186 83.25 161.063 83.0085C160.942 82.767 160.769 82.5765 160.544 82.4368C160.322 82.2971 160.059 82.2273 159.756 82.2273C159.422 82.2273 159.133 82.3101 158.889 82.4759C158.648 82.6392 158.462 82.8523 158.332 83.1151C158.202 83.3778 158.137 83.6596 158.137 83.9602V84.4432C158.137 84.8551 158.208 85.2043 158.35 85.4908C158.494 85.7749 158.694 85.9915 158.95 86.1406C159.205 86.2874 159.503 86.3608 159.841 86.3608C160.061 86.3608 160.26 86.33 160.438 86.2685C160.618 86.2045 160.773 86.1098 160.903 85.9844C161.033 85.8565 161.134 85.6979 161.205 85.5085L162.014 85.7358C161.929 86.0104 161.786 86.2519 161.585 86.4602C161.383 86.6662 161.135 86.8272 160.839 86.9432C160.543 87.0568 160.21 87.1136 159.841 87.1136ZM167.669 81.5455L165.652 87H164.799L162.782 81.5455H163.691L165.197 85.892H165.254L166.76 81.5455H167.669ZM170.866 87.1136C170.341 87.1136 169.888 86.9976 169.506 86.7656C169.128 86.5312 168.835 86.2045 168.629 85.7855C168.426 85.3641 168.324 84.8741 168.324 84.3153C168.324 83.7566 168.426 83.2642 168.629 82.8381C168.835 82.4096 169.122 82.0758 169.489 81.8366C169.858 81.5952 170.289 81.4744 170.781 81.4744C171.065 81.4744 171.346 81.5218 171.623 81.6165C171.9 81.7112 172.152 81.8651 172.379 82.0781C172.607 82.2888 172.788 82.5682 172.923 82.9162C173.058 83.2642 173.125 83.6927 173.125 84.2017V84.5568H168.92V83.8324H172.273C172.273 83.5246 172.211 83.25 172.088 83.0085C171.967 82.767 171.795 82.5765 171.57 82.4368C171.347 82.2971 171.084 82.2273 170.781 82.2273C170.447 82.2273 170.159 82.3101 169.915 82.4759C169.673 82.6392 169.487 82.8523 169.357 83.1151C169.227 83.3778 169.162 83.6596 169.162 83.9602V84.4432C169.162 84.8551 169.233 85.2043 169.375 85.4908C169.519 85.7749 169.719 85.9915 169.975 86.1406C170.231 86.2874 170.528 86.3608 170.866 86.3608C171.087 86.3608 171.286 86.33 171.463 86.2685C171.643 86.2045 171.798 86.1098 171.928 85.9844C172.058 85.8565 172.159 85.6979 172.23 85.5085L173.04 85.7358C172.955 86.0104 172.811 86.2519 172.61 86.4602C172.409 86.6662 172.16 86.8272 171.864 86.9432C171.568 87.0568 171.236 87.1136 170.866 87.1136ZM174.4 87V81.5455H175.21V82.3693H175.266C175.366 82.0994 175.546 81.8804 175.806 81.7124C176.067 81.5443 176.36 81.4602 176.687 81.4602C176.748 81.4602 176.825 81.4614 176.918 81.4638C177.01 81.4661 177.08 81.4697 177.127 81.4744V82.3267C177.099 82.3196 177.034 82.3089 176.932 82.2947C176.832 82.2782 176.727 82.2699 176.616 82.2699C176.351 82.2699 176.114 82.3255 175.906 82.4368C175.7 82.5457 175.536 82.6972 175.415 82.8913C175.297 83.0831 175.238 83.3021 175.238 83.5483V87H174.4ZM179.229 79.7273L179.157 84.9545H178.334L178.263 79.7273H179.229ZM178.746 87.0568C178.57 87.0568 178.42 86.9941 178.295 86.8686C178.169 86.7431 178.106 86.5928 178.106 86.4176C178.106 86.2424 178.169 86.0921 178.295 85.9666C178.42 85.8411 178.57 85.7784 178.746 85.7784C178.921 85.7784 179.071 85.8411 179.197 85.9666C179.322 86.0921 179.385 86.2424 179.385 86.4176C179.385 86.5336 179.355 86.6402 179.296 86.7372C179.239 86.8343 179.162 86.9124 179.065 86.9716C178.97 87.0284 178.864 87.0568 178.746 87.0568Z" fill="black"/>
<path d="M105.84 58.62C105.84 59.628 105.66 60.576 105.3 61.464C104.964 62.352 104.484 63.132 103.86 63.804C103.26 64.452 102.54 64.98 101.7 65.388C100.86 65.772 99.96 65.964 99 65.964C98.064 65.964 97.152 65.844 96.264 65.604C95.376 65.364 94.584 65.1 93.888 64.812C93.072 64.476 92.292 64.08 91.548 63.624L92.268 61.644C93.084 62.076 93.888 62.448 94.68 62.76C95.376 63.024 96.108 63.276 96.876 63.516C97.644 63.732 98.34 63.84 98.964 63.84C99.636 63.84 100.26 63.708 100.836 63.444C101.436 63.18 101.952 62.82 102.384 62.364C102.816 61.884 103.152 61.332 103.392 60.708C103.632 60.084 103.752 59.412 103.752 58.692C103.752 57.948 103.584 57.336 103.248 56.856C102.912 56.352 102.48 55.944 101.952 55.632C101.448 55.296 100.884 55.044 100.26 54.876C99.636 54.684 99.024 54.54 98.424 54.444C97.536 54.3 96.696 54.048 95.904 53.688C95.136 53.328 94.452 52.86 93.852 52.284C93.276 51.708 92.82 51.036 92.484 50.268C92.148 49.5 91.98 48.636 91.98 47.676C91.98 46.692 92.148 45.768 92.484 44.904C92.844 44.016 93.324 43.248 93.924 42.6C94.548 41.928 95.268 41.4 96.084 41.016C96.9 40.632 97.764 40.44 98.676 40.44C99.252 40.44 99.84 40.512 100.44 40.656C101.064 40.776 101.64 40.908 102.168 41.052C102.768 41.244 103.356 41.448 103.932 41.664L103.248 43.68C102.72 43.464 102.18 43.272 101.628 43.104C101.148 42.96 100.644 42.828 100.116 42.708C99.588 42.588 99.084 42.528 98.604 42.528C97.956 42.528 97.344 42.672 96.768 42.96C96.216 43.224 95.736 43.596 95.328 44.076C94.92 44.532 94.596 45.072 94.356 45.696C94.116 46.296 93.996 46.92 93.996 47.568C93.996 48.312 94.14 48.972 94.428 49.548C94.74 50.1 95.124 50.568 95.58 50.952C96.06 51.336 96.588 51.648 97.164 51.888C97.74 52.104 98.292 52.26 98.82 52.356C99.804 52.524 100.716 52.764 101.556 53.076C102.42 53.388 103.164 53.796 103.788 54.3C104.436 54.78 104.94 55.38 105.3 56.1C105.66 56.82 105.84 57.66 105.84 58.62ZM118.289 56.82L115.337 43.14H114.869L111.881 56.82H118.289ZM111.305 58.944L109.721 65.964H107.777L113.537 40.764H116.597L122.357 65.964H120.449L118.829 58.944H111.305ZM134.236 66L129.16 54.516H128.152V66H126.136V40.8H128.152V52.356H129.124L134.308 40.872H136.54L131.032 53.472L136.468 66H134.236ZM146.967 64.452C147.399 64.452 147.903 64.392 148.479 64.272C149.055 64.128 149.595 63.888 150.099 63.552C150.627 63.192 151.059 62.712 151.395 62.112C151.755 61.512 151.935 60.732 151.935 59.772V40.764H153.807V59.772C153.807 60.468 153.699 61.2 153.483 61.968C153.267 62.712 152.895 63.408 152.367 64.056C151.863 64.68 151.167 65.208 150.279 65.64C149.391 66.048 148.287 66.252 146.967 66.252C145.647 66.252 144.543 66.048 143.655 65.64C142.791 65.208 142.095 64.68 141.567 64.056C141.039 63.408 140.667 62.712 140.451 61.968C140.235 61.2 140.127 60.468 140.127 59.772V40.764H141.999V59.772C141.999 60.732 142.167 61.512 142.503 62.112C142.839 62.712 143.247 63.192 143.727 63.552C144.231 63.888 144.771 64.128 145.347 64.272C145.923 64.392 146.463 64.452 146.967 64.452ZM165.334 42.528C164.902 42.528 164.458 42.576 164.002 42.672C163.546 42.768 163.114 42.876 162.706 42.996C162.25 43.14 161.794 43.296 161.338 43.464V53.58H165.334C167.062 53.58 168.454 53.064 169.51 52.032C170.566 51 171.094 49.536 171.094 47.64C171.094 46.704 170.95 45.912 170.662 45.264C170.374 44.616 169.978 44.088 169.474 43.68C168.97 43.272 168.358 42.984 167.638 42.816C166.942 42.624 166.174 42.528 165.334 42.528ZM169.006 55.02L173.47 66H171.454L166.99 55.56C166.558 55.632 166.09 55.668 165.586 55.668H161.302V66H159.394V41.844C160.042 41.604 160.714 41.376 161.41 41.16C162.01 40.968 162.67 40.8 163.39 40.656C164.134 40.512 164.878 40.44 165.622 40.44C166.606 40.44 167.554 40.608 168.466 40.944C169.378 41.256 170.182 41.724 170.878 42.348C171.574 42.948 172.126 43.692 172.534 44.58C172.942 45.468 173.146 46.488 173.146 47.64C173.146 48.456 173.05 49.26 172.858 50.052C172.666 50.82 172.39 51.528 172.03 52.176C171.67 52.824 171.226 53.4 170.698 53.904C170.194 54.384 169.63 54.756 169.006 55.02ZM186.175 56.82L183.223 43.14H182.755L179.767 56.82H186.175ZM179.191 58.944L177.607 65.964H175.663L181.423 40.764H184.483L190.243 65.964H188.335L186.715 58.944H179.191ZM195.679 47.676V59.628C195.679 60.3 195.799 60.924 196.039 61.5C196.303 62.076 196.651 62.58 197.083 63.012C197.515 63.444 198.007 63.792 198.559 64.056C199.135 64.296 199.723 64.416 200.323 64.416C200.563 64.416 200.899 64.368 201.331 64.272C201.787 64.176 202.471 63.888 203.383 63.408V56.604H205.399V64.704C204.031 65.424 202.903 65.88 202.015 66.072C201.151 66.264 200.551 66.36 200.215 66.36C199.255 66.36 198.367 66.168 197.551 65.784C196.759 65.4 196.063 64.884 195.463 64.236C194.887 63.564 194.431 62.796 194.095 61.932C193.783 61.044 193.627 60.108 193.627 59.124V47.676C193.723 45.42 194.371 43.656 195.571 42.384C196.771 41.088 198.343 40.44 200.287 40.44C200.623 40.464 201.031 40.524 201.511 40.62C201.991 40.716 202.423 40.836 202.807 40.98L205.075 41.844L204.355 43.896L201.835 42.924C201.235 42.684 200.719 42.564 200.287 42.564C199.663 42.564 199.063 42.708 198.487 42.996C197.935 43.26 197.443 43.632 197.011 44.112C196.603 44.568 196.279 45.108 196.039 45.732C195.799 46.356 195.679 47.004 195.679 47.676ZM210.124 40.8H211.996V66H210.124V40.8Z" fill="black"/>
<path d="M91.0568 29V20.2727H94.0057C94.6875 20.2727 95.2472 20.3892 95.6847 20.6222C96.1222 20.8523 96.446 21.169 96.6562 21.5724C96.8665 21.9759 96.9716 22.4347 96.9716 22.9489C96.9716 23.4631 96.8665 23.919 96.6562 24.3168C96.446 24.7145 96.1236 25.027 95.6889 25.2543C95.2543 25.4787 94.6989 25.5909 94.0227 25.5909H91.6364V24.6364H93.9886C94.4545 24.6364 94.8295 24.5682 95.1136 24.4318C95.4006 24.2955 95.608 24.1023 95.7358 23.8523C95.8665 23.5994 95.9318 23.2983 95.9318 22.9489C95.9318 22.5994 95.8665 22.294 95.7358 22.0327C95.6051 21.7713 95.3963 21.5696 95.1094 21.4276C94.8224 21.2827 94.4432 21.2102 93.9716 21.2102H92.1136V29H91.0568ZM95.1648 25.0795L97.3125 29H96.0852L93.9716 25.0795H95.1648ZM101.27 29.1364C100.64 29.1364 100.096 28.9972 99.6381 28.7188C99.1836 28.4375 98.8327 28.0455 98.5856 27.5426C98.3413 27.0369 98.2191 26.4489 98.2191 25.7784C98.2191 25.108 98.3413 24.517 98.5856 24.0057C98.8327 23.4915 99.1765 23.0909 99.6168 22.804C100.06 22.5142 100.577 22.3693 101.168 22.3693C101.509 22.3693 101.846 22.4261 102.178 22.5398C102.51 22.6534 102.813 22.8381 103.086 23.0938C103.358 23.3466 103.576 23.6818 103.738 24.0994C103.9 24.517 103.98 25.0312 103.98 25.642V26.0682H98.935V25.1989H102.958C102.958 24.8295 102.884 24.5 102.736 24.2102C102.591 23.9205 102.384 23.6918 102.114 23.5241C101.847 23.3565 101.532 23.2727 101.168 23.2727C100.767 23.2727 100.421 23.3722 100.128 23.571C99.8384 23.767 99.6154 24.0227 99.4592 24.3381C99.3029 24.6534 99.2248 24.9915 99.2248 25.3523V25.9318C99.2248 26.4261 99.31 26.8452 99.4805 27.1889C99.6538 27.5298 99.8938 27.7898 100.201 27.9688C100.507 28.1449 100.864 28.233 101.27 28.233C101.534 28.233 101.773 28.196 101.986 28.1222C102.202 28.0455 102.388 27.9318 102.544 27.7812C102.701 27.6278 102.821 27.4375 102.907 27.2102L103.878 27.483C103.776 27.8125 103.604 28.1023 103.363 28.3523C103.121 28.5994 102.823 28.7926 102.468 28.9318C102.113 29.0682 101.713 29.1364 101.27 29.1364ZM107.982 29.1364C107.436 29.1364 106.955 28.9986 106.537 28.723C106.12 28.4446 105.793 28.0526 105.557 27.5469C105.321 27.0384 105.203 26.4375 105.203 25.7443C105.203 25.0568 105.321 24.4602 105.557 23.9545C105.793 23.4489 106.121 23.0582 106.542 22.7827C106.962 22.5071 107.448 22.3693 107.999 22.3693C108.425 22.3693 108.762 22.4403 109.009 22.5824C109.259 22.7216 109.449 22.8807 109.58 23.0597C109.713 23.2358 109.817 23.3807 109.891 23.4943H109.976V20.2727H110.982V29H110.01V27.9943H109.891C109.817 28.1136 109.712 28.2642 109.576 28.446C109.439 28.625 109.245 28.7855 108.992 28.9276C108.739 29.0668 108.402 29.1364 107.982 29.1364ZM108.118 28.233C108.522 28.233 108.863 28.1278 109.141 27.9176C109.419 27.7045 109.631 27.4105 109.776 27.0355C109.921 26.6577 109.993 26.2216 109.993 25.7273C109.993 25.2386 109.922 24.8111 109.78 24.4446C109.638 24.0753 109.428 23.7884 109.15 23.5838C108.871 23.3764 108.527 23.2727 108.118 23.2727C107.692 23.2727 107.337 23.3821 107.053 23.6009C106.772 23.8168 106.56 24.1108 106.418 24.483C106.279 24.8523 106.209 25.267 106.209 25.7273C106.209 26.1932 106.28 26.6165 106.422 26.9972C106.567 27.375 106.78 27.6761 107.061 27.9006C107.346 28.1222 107.698 28.233 108.118 28.233ZM115.708 29.1364C115.077 29.1364 114.533 28.9972 114.076 28.7188C113.621 28.4375 113.27 28.0455 113.023 27.5426C112.779 27.0369 112.657 26.4489 112.657 25.7784C112.657 25.108 112.779 24.517 113.023 24.0057C113.27 23.4915 113.614 23.0909 114.054 22.804C114.498 22.5142 115.015 22.3693 115.605 22.3693C115.946 22.3693 116.283 22.4261 116.615 22.5398C116.948 22.6534 117.25 22.8381 117.523 23.0938C117.796 23.3466 118.013 23.6818 118.175 24.0994C118.337 24.517 118.418 25.0312 118.418 25.642V26.0682H113.373V25.1989H117.395C117.395 24.8295 117.321 24.5 117.174 24.2102C117.029 23.9205 116.821 23.6918 116.551 23.5241C116.284 23.3565 115.969 23.2727 115.605 23.2727C115.205 23.2727 114.858 23.3722 114.566 23.571C114.276 23.767 114.053 24.0227 113.897 24.3381C113.74 24.6534 113.662 24.9915 113.662 25.3523V25.9318C113.662 26.4261 113.748 26.8452 113.918 27.1889C114.091 27.5298 114.331 27.7898 114.638 27.9688C114.945 28.1449 115.301 28.233 115.708 28.233C115.972 28.233 116.211 28.196 116.424 28.1222C116.64 28.0455 116.826 27.9318 116.982 27.7812C117.138 27.6278 117.259 27.4375 117.344 27.2102L118.316 27.483C118.213 27.8125 118.042 28.1023 117.8 28.3523C117.559 28.5994 117.26 28.7926 116.905 28.9318C116.55 29.0682 116.151 29.1364 115.708 29.1364ZM125.794 29.1364C125.249 29.1364 124.767 28.9986 124.35 28.723C123.932 28.4446 123.605 28.0526 123.37 27.5469C123.134 27.0384 123.016 26.4375 123.016 25.7443C123.016 25.0568 123.134 24.4602 123.37 23.9545C123.605 23.4489 123.934 23.0582 124.354 22.7827C124.775 22.5071 125.26 22.3693 125.811 22.3693C126.238 22.3693 126.574 22.4403 126.821 22.5824C127.071 22.7216 127.262 22.8807 127.392 23.0597C127.526 23.2358 127.63 23.3807 127.703 23.4943H127.789V20.2727H128.794V29H127.823V27.9943H127.703C127.63 28.1136 127.525 28.2642 127.388 28.446C127.252 28.625 127.057 28.7855 126.804 28.9276C126.551 29.0668 126.215 29.1364 125.794 29.1364ZM125.931 28.233C126.334 28.233 126.675 28.1278 126.953 27.9176C127.232 27.7045 127.444 27.4105 127.588 27.0355C127.733 26.6577 127.806 26.2216 127.806 25.7273C127.806 25.2386 127.735 24.8111 127.593 24.4446C127.451 24.0753 127.24 23.7884 126.962 23.5838C126.684 23.3764 126.34 23.2727 125.931 23.2727C125.505 23.2727 125.15 23.3821 124.865 23.6009C124.584 23.8168 124.373 24.1108 124.23 24.483C124.091 24.8523 124.022 25.267 124.022 25.7273C124.022 26.1932 124.093 26.6165 124.235 26.9972C124.38 27.375 124.593 27.6761 124.874 27.9006C125.158 28.1222 125.51 28.233 125.931 28.233ZM133.52 29.1364C132.89 29.1364 132.346 28.9972 131.888 28.7188C131.434 28.4375 131.083 28.0455 130.836 27.5426C130.591 27.0369 130.469 26.4489 130.469 25.7784C130.469 25.108 130.591 24.517 130.836 24.0057C131.083 23.4915 131.426 23.0909 131.867 22.804C132.31 22.5142 132.827 22.3693 133.418 22.3693C133.759 22.3693 134.096 22.4261 134.428 22.5398C134.76 22.6534 135.063 22.8381 135.336 23.0938C135.608 23.3466 135.826 23.6818 135.988 24.0994C136.15 24.517 136.23 25.0312 136.23 25.642V26.0682H131.185V25.1989H135.208C135.208 24.8295 135.134 24.5 134.986 24.2102C134.841 23.9205 134.634 23.6918 134.364 23.5241C134.097 23.3565 133.782 23.2727 133.418 23.2727C133.017 23.2727 132.671 23.3722 132.378 23.571C132.088 23.767 131.865 24.0227 131.709 24.3381C131.553 24.6534 131.475 24.9915 131.475 25.3523V25.9318C131.475 26.4261 131.56 26.8452 131.73 27.1889C131.904 27.5298 132.144 27.7898 132.451 27.9688C132.757 28.1449 133.114 28.233 133.52 28.233C133.784 28.233 134.023 28.196 134.236 28.1222C134.452 28.0455 134.638 27.9318 134.794 27.7812C134.951 27.6278 135.071 27.4375 135.157 27.2102L136.128 27.483C136.026 27.8125 135.854 28.1023 135.613 28.3523C135.371 28.5994 135.073 28.7926 134.718 28.9318C134.363 29.0682 133.963 29.1364 133.52 29.1364ZM146.044 22.4545C145.993 22.0227 145.786 21.6875 145.422 21.4489C145.059 21.2102 144.613 21.0909 144.084 21.0909C143.698 21.0909 143.36 21.1534 143.07 21.2784C142.783 21.4034 142.559 21.5753 142.397 21.794C142.238 22.0128 142.158 22.2614 142.158 22.5398C142.158 22.7727 142.213 22.973 142.324 23.1406C142.438 23.3054 142.583 23.4432 142.759 23.554C142.935 23.6619 143.12 23.7514 143.313 23.8224C143.506 23.8906 143.684 23.946 143.846 23.9886L144.732 24.2273C144.959 24.2869 145.212 24.3693 145.49 24.4744C145.772 24.5795 146.04 24.723 146.296 24.9048C146.554 25.0838 146.767 25.3139 146.935 25.5952C147.103 25.8764 147.186 26.2216 147.186 26.6307C147.186 27.1023 147.063 27.5284 146.816 27.9091C146.571 28.2898 146.213 28.5923 145.742 28.8168C145.273 29.0412 144.703 29.1534 144.033 29.1534C143.408 29.1534 142.867 29.0526 142.409 28.8509C141.955 28.6491 141.597 28.3679 141.336 28.0071C141.077 27.6463 140.931 27.2273 140.897 26.75H141.988C142.016 27.0795 142.127 27.3523 142.32 27.5682C142.516 27.7812 142.763 27.9403 143.061 28.0455C143.363 28.1477 143.686 28.1989 144.033 28.1989C144.436 28.1989 144.799 28.1335 145.12 28.0028C145.441 27.8693 145.695 27.6847 145.882 27.4489C146.07 27.2102 146.164 26.9318 146.164 26.6136C146.164 26.3239 146.083 26.0881 145.921 25.9062C145.759 25.7244 145.546 25.5767 145.282 25.4631C145.017 25.3494 144.732 25.25 144.425 25.1648L143.351 24.858C142.669 24.6619 142.13 24.3821 141.732 24.0185C141.334 23.6548 141.135 23.179 141.135 22.5909C141.135 22.1023 141.267 21.6761 141.532 21.3125C141.799 20.946 142.157 20.6619 142.605 20.4602C143.057 20.2557 143.561 20.1534 144.118 20.1534C144.681 20.1534 145.181 20.2543 145.618 20.456C146.056 20.6548 146.402 20.9276 146.658 21.2741C146.917 21.6207 147.053 22.0142 147.067 22.4545H146.044ZM152.913 26.3239V22.4545H153.918V29H152.913V27.892H152.844C152.691 28.2244 152.452 28.5071 152.129 28.7401C151.805 28.9702 151.396 29.0852 150.901 29.0852C150.492 29.0852 150.129 28.9957 149.81 28.8168C149.492 28.6349 149.242 28.3622 149.06 27.9986C148.879 27.6321 148.788 27.1705 148.788 26.6136V22.4545H149.793V26.5455C149.793 27.0227 149.927 27.4034 150.194 27.6875C150.464 27.9716 150.808 28.1136 151.225 28.1136C151.475 28.1136 151.729 28.0497 151.988 27.9219C152.249 27.794 152.468 27.598 152.644 27.3338C152.823 27.0696 152.913 26.733 152.913 26.3239ZM155.76 31.4545V22.4545H156.732V23.4943H156.851C156.925 23.3807 157.027 23.2358 157.158 23.0597C157.292 22.8807 157.482 22.7216 157.729 22.5824C157.979 22.4403 158.317 22.3693 158.743 22.3693C159.294 22.3693 159.78 22.5071 160.201 22.7827C160.621 23.0582 160.949 23.4489 161.185 23.9545C161.421 24.4602 161.539 25.0568 161.539 25.7443C161.539 26.4375 161.421 27.0384 161.185 27.5469C160.949 28.0526 160.623 28.4446 160.205 28.723C159.787 28.9986 159.306 29.1364 158.76 29.1364C158.34 29.1364 158.003 29.0668 157.75 28.9276C157.498 28.7855 157.303 28.625 157.167 28.446C157.03 28.2642 156.925 28.1136 156.851 27.9943H156.766V31.4545H155.76ZM156.749 25.7273C156.749 26.2216 156.821 26.6577 156.966 27.0355C157.111 27.4105 157.323 27.7045 157.601 27.9176C157.88 28.1278 158.221 28.233 158.624 28.233C159.044 28.233 159.395 28.1222 159.676 27.9006C159.961 27.6761 160.174 27.375 160.316 26.9972C160.461 26.6165 160.533 26.1932 160.533 25.7273C160.533 25.267 160.462 24.8523 160.32 24.483C160.181 24.1108 159.969 23.8168 159.685 23.6009C159.404 23.3821 159.05 23.2727 158.624 23.2727C158.215 23.2727 157.871 23.3764 157.593 23.5838C157.314 23.7884 157.104 24.0753 156.962 24.4446C156.82 24.8111 156.749 25.2386 156.749 25.7273ZM165.817 29.1364C165.186 29.1364 164.642 28.9972 164.185 28.7188C163.73 28.4375 163.38 28.0455 163.132 27.5426C162.888 27.0369 162.766 26.4489 162.766 25.7784C162.766 25.108 162.888 24.517 163.132 24.0057C163.38 23.4915 163.723 23.0909 164.164 22.804C164.607 22.5142 165.124 22.3693 165.715 22.3693C166.056 22.3693 166.392 22.4261 166.725 22.5398C167.057 22.6534 167.36 22.8381 167.632 23.0938C167.905 23.3466 168.123 23.6818 168.284 24.0994C168.446 24.517 168.527 25.0312 168.527 25.642V26.0682H163.482V25.1989H167.505C167.505 24.8295 167.431 24.5 167.283 24.2102C167.138 23.9205 166.931 23.6918 166.661 23.5241C166.394 23.3565 166.078 23.2727 165.715 23.2727C165.314 23.2727 164.968 23.3722 164.675 23.571C164.385 23.767 164.162 24.0227 164.006 24.3381C163.85 24.6534 163.772 24.9915 163.772 25.3523V25.9318C163.772 26.4261 163.857 26.8452 164.027 27.1889C164.201 27.5298 164.441 27.7898 164.748 27.9688C165.054 28.1449 165.411 28.233 165.817 28.233C166.081 28.233 166.32 28.196 166.533 28.1222C166.749 28.0455 166.935 27.9318 167.091 27.7812C167.248 27.6278 167.368 27.4375 167.453 27.2102L168.425 27.483C168.323 27.8125 168.151 28.1023 167.909 28.3523C167.668 28.5994 167.37 28.7926 167.015 28.9318C166.659 29.0682 166.26 29.1364 165.817 29.1364ZM170.057 29V22.4545H171.029V23.4432H171.097C171.216 23.1193 171.432 22.8565 171.745 22.6548C172.057 22.4531 172.409 22.3523 172.801 22.3523C172.875 22.3523 172.968 22.3537 173.078 22.3565C173.189 22.3594 173.273 22.3636 173.33 22.3693V23.392C173.296 23.3835 173.218 23.3707 173.096 23.3537C172.976 23.3338 172.85 23.3239 172.716 23.3239C172.398 23.3239 172.114 23.3906 171.864 23.5241C171.617 23.6548 171.421 23.8366 171.276 24.0696C171.134 24.2997 171.063 24.5625 171.063 24.858V29H170.057ZM174.522 29V22.4545H175.494V23.4773H175.579C175.715 23.1278 175.935 22.8565 176.239 22.6634C176.543 22.4673 176.908 22.3693 177.335 22.3693C177.766 22.3693 178.126 22.4673 178.413 22.6634C178.702 22.8565 178.928 23.1278 179.09 23.4773H179.158C179.326 23.1392 179.577 22.8707 179.913 22.6719C180.248 22.4702 180.65 22.3693 181.119 22.3693C181.704 22.3693 182.183 22.5526 182.555 22.919C182.927 23.2827 183.113 23.8494 183.113 24.6193V29H182.107V24.6193C182.107 24.1364 181.975 23.7912 181.711 23.5838C181.447 23.3764 181.136 23.2727 180.778 23.2727C180.317 23.2727 179.961 23.4119 179.708 23.6903C179.455 23.9659 179.329 24.3153 179.329 24.7386V29H178.306V24.517C178.306 24.1449 178.185 23.8452 177.944 23.6179C177.702 23.3878 177.391 23.2727 177.011 23.2727C176.749 23.2727 176.505 23.3423 176.278 23.4815C176.053 23.6207 175.871 23.8139 175.732 24.0611C175.596 24.3054 175.528 24.5881 175.528 24.9091V29H174.522ZM187.696 29.1364C187.065 29.1364 186.521 28.9972 186.064 28.7188C185.609 28.4375 185.259 28.0455 185.011 27.5426C184.767 27.0369 184.645 26.4489 184.645 25.7784C184.645 25.108 184.767 24.517 185.011 24.0057C185.259 23.4915 185.602 23.0909 186.043 22.804C186.486 22.5142 187.003 22.3693 187.594 22.3693C187.935 22.3693 188.271 22.4261 188.604 22.5398C188.936 22.6534 189.239 22.8381 189.511 23.0938C189.784 23.3466 190.001 23.6818 190.163 24.0994C190.325 24.517 190.406 25.0312 190.406 25.642V26.0682H185.361V25.1989H189.384C189.384 24.8295 189.31 24.5 189.162 24.2102C189.017 23.9205 188.81 23.6918 188.54 23.5241C188.273 23.3565 187.957 23.2727 187.594 23.2727C187.193 23.2727 186.847 23.3722 186.554 23.571C186.264 23.767 186.041 24.0227 185.885 24.3381C185.729 24.6534 185.651 24.9915 185.651 25.3523V25.9318C185.651 26.4261 185.736 26.8452 185.906 27.1889C186.08 27.5298 186.32 27.7898 186.626 27.9688C186.933 28.1449 187.29 28.233 187.696 28.233C187.96 28.233 188.199 28.196 188.412 28.1222C188.628 28.0455 188.814 27.9318 188.97 27.7812C189.126 27.6278 189.247 27.4375 189.332 27.2102L190.304 27.483C190.202 27.8125 190.03 28.1023 189.788 28.3523C189.547 28.5994 189.249 28.7926 188.893 28.9318C188.538 29.0682 188.139 29.1364 187.696 29.1364ZM191.936 29V22.4545H192.908V23.4432H192.976C193.095 23.1193 193.311 22.8565 193.624 22.6548C193.936 22.4531 194.288 22.3523 194.68 22.3523C194.754 22.3523 194.847 22.3537 194.957 22.3565C195.068 22.3594 195.152 22.3636 195.209 22.3693V23.392C195.175 23.3835 195.097 23.3707 194.974 23.3537C194.855 23.3338 194.729 23.3239 194.595 23.3239C194.277 23.3239 193.993 23.3906 193.743 23.5241C193.496 23.6548 193.3 23.8366 193.155 24.0696C193.013 24.2997 192.942 24.5625 192.942 24.858V29H191.936ZM198.861 29.1364C198.247 29.1364 197.719 28.9915 197.276 28.7017C196.832 28.4119 196.491 28.0128 196.253 27.5043C196.014 26.9957 195.895 26.4148 195.895 25.7614C195.895 25.0966 196.017 24.5099 196.261 24.0014C196.509 23.4901 196.852 23.0909 197.293 22.804C197.736 22.5142 198.253 22.3693 198.844 22.3693C199.304 22.3693 199.719 22.4545 200.088 22.625C200.457 22.7955 200.76 23.0341 200.996 23.3409C201.232 23.6477 201.378 24.0057 201.435 24.4148H200.429C200.352 24.1165 200.182 23.8523 199.918 23.6222C199.656 23.3892 199.304 23.2727 198.861 23.2727C198.469 23.2727 198.125 23.375 197.83 23.5795C197.537 23.7812 197.308 24.0668 197.143 24.4361C196.982 24.8026 196.901 25.233 196.901 25.7273C196.901 26.233 196.98 26.6733 197.139 27.0483C197.301 27.4233 197.528 27.7145 197.821 27.9219C198.116 28.1293 198.463 28.233 198.861 28.233C199.122 28.233 199.359 28.1875 199.572 28.0966C199.786 28.0057 199.966 27.875 200.114 27.7045C200.261 27.5341 200.366 27.3295 200.429 27.0909H201.435C201.378 27.4773 201.237 27.8253 201.013 28.1349C200.791 28.4418 200.497 28.6861 200.131 28.8679C199.767 29.0469 199.344 29.1364 198.861 29.1364ZM204.831 29.1534C204.416 29.1534 204.04 29.0753 203.702 28.919C203.364 28.7599 203.095 28.5312 202.896 28.233C202.697 27.9318 202.598 27.5682 202.598 27.142C202.598 26.767 202.672 26.4631 202.82 26.2301C202.967 25.9943 203.165 25.8097 203.412 25.6761C203.659 25.5426 203.932 25.4432 204.23 25.3778C204.531 25.3097 204.834 25.2557 205.138 25.2159C205.536 25.1648 205.858 25.1264 206.105 25.1009C206.355 25.0724 206.537 25.0256 206.651 24.9602C206.767 24.8949 206.825 24.7812 206.825 24.6193V24.5852C206.825 24.1648 206.71 23.8381 206.48 23.6051C206.253 23.3722 205.908 23.2557 205.445 23.2557C204.964 23.2557 204.588 23.3608 204.315 23.571C204.043 23.7812 203.851 24.0057 203.74 24.2443L202.786 23.9034C202.956 23.5057 203.183 23.196 203.467 22.9744C203.754 22.75 204.067 22.5937 204.405 22.5057C204.746 22.4148 205.081 22.3693 205.411 22.3693C205.621 22.3693 205.862 22.3949 206.135 22.446C206.411 22.4943 206.676 22.5952 206.932 22.7486C207.19 22.902 207.405 23.1335 207.575 23.4432C207.746 23.7528 207.831 24.1676 207.831 24.6875V29H206.825V28.1136H206.774C206.706 28.2557 206.592 28.4077 206.433 28.5696C206.274 28.7315 206.063 28.8693 205.798 28.983C205.534 29.0966 205.212 29.1534 204.831 29.1534ZM204.984 28.25C205.382 28.25 205.717 28.1719 205.99 28.0156C206.266 27.8594 206.473 27.6577 206.612 27.4105C206.754 27.1634 206.825 26.9034 206.825 26.6307V25.7102C206.783 25.7614 206.689 25.8082 206.544 25.8509C206.402 25.8906 206.237 25.9261 206.05 25.9574C205.865 25.9858 205.685 26.0114 205.509 26.0341C205.335 26.054 205.195 26.071 205.087 26.0852C204.825 26.1193 204.581 26.1747 204.354 26.2514C204.129 26.3253 203.947 26.4375 203.808 26.5881C203.672 26.7358 203.604 26.9375 203.604 27.1932C203.604 27.5426 203.733 27.8068 203.991 27.9858C204.253 28.1619 204.584 28.25 204.984 28.25ZM212.138 29.1364C211.593 29.1364 211.111 28.9986 210.694 28.723C210.276 28.4446 209.949 28.0526 209.713 27.5469C209.478 27.0384 209.36 26.4375 209.36 25.7443C209.36 25.0568 209.478 24.4602 209.713 23.9545C209.949 23.4489 210.277 23.0582 210.698 22.7827C211.118 22.5071 211.604 22.3693 212.155 22.3693C212.581 22.3693 212.918 22.4403 213.165 22.5824C213.415 22.7216 213.605 22.8807 213.736 23.0597C213.87 23.2358 213.973 23.3807 214.047 23.4943H214.132V20.2727H215.138V29H214.167V27.9943H214.047C213.973 28.1136 213.868 28.2642 213.732 28.446C213.596 28.625 213.401 28.7855 213.148 28.9276C212.895 29.0668 212.559 29.1364 212.138 29.1364ZM212.275 28.233C212.678 28.233 213.019 28.1278 213.297 27.9176C213.576 27.7045 213.787 27.4105 213.932 27.0355C214.077 26.6577 214.15 26.2216 214.15 25.7273C214.15 25.2386 214.078 24.8111 213.936 24.4446C213.794 24.0753 213.584 23.7884 213.306 23.5838C213.027 23.3764 212.684 23.2727 212.275 23.2727C211.848 23.2727 211.493 23.3821 211.209 23.6009C210.928 23.8168 210.716 24.1108 210.574 24.483C210.435 24.8523 210.365 25.267 210.365 25.7273C210.365 26.1932 210.436 26.6165 210.578 26.9972C210.723 27.375 210.936 27.6761 211.218 27.9006C211.502 28.1222 211.854 28.233 212.275 28.233ZM219.779 29.1364C219.188 29.1364 218.669 28.9957 218.223 28.7145C217.78 28.4332 217.434 28.0398 217.184 27.5341C216.936 27.0284 216.813 26.4375 216.813 25.7614C216.813 25.0795 216.936 24.4844 217.184 23.9759C217.434 23.4673 217.78 23.0724 218.223 22.7912C218.669 22.5099 219.188 22.3693 219.779 22.3693C220.37 22.3693 220.887 22.5099 221.33 22.7912C221.776 23.0724 222.123 23.4673 222.37 23.9759C222.62 24.4844 222.745 25.0795 222.745 25.7614C222.745 26.4375 222.62 27.0284 222.37 27.5341C222.123 28.0398 221.776 28.4332 221.33 28.7145C220.887 28.9957 220.37 29.1364 219.779 29.1364ZM219.779 28.233C220.228 28.233 220.597 28.1179 220.887 27.8878C221.176 27.6577 221.391 27.3551 221.53 26.9801C221.669 26.6051 221.739 26.1989 221.739 25.7614C221.739 25.3239 221.669 24.9162 221.53 24.5384C221.391 24.1605 221.176 23.8551 220.887 23.6222C220.597 23.3892 220.228 23.2727 219.779 23.2727C219.33 23.2727 218.961 23.3892 218.671 23.6222C218.381 23.8551 218.167 24.1605 218.027 24.5384C217.888 24.9162 217.819 25.3239 217.819 25.7614C217.819 26.1989 217.888 26.6051 218.027 26.9801C218.167 27.3551 218.381 27.6577 218.671 27.8878C218.961 28.1179 219.33 28.233 219.779 28.233ZM228.916 23.9205L228.013 24.1761C227.956 24.0256 227.872 23.8793 227.761 23.7372C227.653 23.5923 227.506 23.473 227.318 23.3793C227.131 23.2855 226.891 23.2386 226.598 23.2386C226.197 23.2386 225.864 23.331 225.597 23.5156C225.332 23.6974 225.2 23.929 225.2 24.2102C225.2 24.4602 225.291 24.6577 225.473 24.8026C225.655 24.9474 225.939 25.0682 226.325 25.1648L227.297 25.4034C227.882 25.5455 228.318 25.7628 228.605 26.0554C228.892 26.3452 229.036 26.7187 229.036 27.1761C229.036 27.5511 228.928 27.8864 228.712 28.1818C228.499 28.4773 228.2 28.7102 227.817 28.8807C227.433 29.0511 226.987 29.1364 226.479 29.1364C225.811 29.1364 225.259 28.9915 224.821 28.7017C224.384 28.4119 224.107 27.9886 223.99 27.4318L224.945 27.1932C225.036 27.5455 225.207 27.8097 225.46 27.9858C225.716 28.1619 226.05 28.25 226.462 28.25C226.93 28.25 227.303 28.1506 227.578 27.9517C227.857 27.75 227.996 27.5085 227.996 27.2273C227.996 27 227.916 26.8097 227.757 26.6562C227.598 26.5 227.354 26.3835 227.024 26.3068L225.933 26.0511C225.334 25.9091 224.893 25.6889 224.612 25.3906C224.334 25.0895 224.195 24.7131 224.195 24.2614C224.195 23.892 224.298 23.5653 224.506 23.2812C224.716 22.9972 225.001 22.7741 225.362 22.6122C225.726 22.4503 226.138 22.3693 226.598 22.3693C227.246 22.3693 227.754 22.5114 228.124 22.7955C228.496 23.0795 228.76 23.4545 228.916 23.9205Z" fill="black"/>
<circle cx="40" cy="35" r="35" fill="#EEB9EF"/>
<path d="M67.264 34.48C68.16 34.48 68.8 34.16 68.928 33.456C66.624 31.28 62.912 28.464 62.912 28.464L59.52 32.56H42.048V18.8C43.648 18.544 44.096 17.904 44.288 17.008L37.76 16.24V32.56H11.264L11.84 34.48H34.56C29.76 46.384 20.736 58.672 9.728 66.8L10.56 67.632C22.464 60.656 31.872 50.352 37.76 38.896V74.928H38.592C40.192 74.928 42.048 73.84 42.048 73.2V34.928C47.168 48.944 56 60.272 65.856 66.608C66.624 64.496 68.288 63.152 70.016 63.024L70.208 62.32C59.904 57.456 49.152 46.704 43.328 34.48H67.264Z" fill="black"/>
</svg>
